<?xml version="1.0" encoding="utf-8"?>
<!-- Generator: Adobe Illustrator 25.0.0, SVG Export Plug-In . SVG Version: 6.00 Build 0)  -->
<svg version="1.1" id="Lager_1" xmlns="http://www.w3.org/2000/svg" xmlns:xlink="http://www.w3.org/1999/xlink" x="0px" y="0px"
	 viewBox="0 0 356.3 293.8" style="enable-background:new 0 0 356.3 293.8;" xml:space="preserve">
<style type="text/css">
	.st0{fill:#CCAA62;}
</style>
<g>
	<g>
		<path class="st0" d="M40.3,160.5c0,3.6,0.7,6.3,2,8c1.3,1.7,3.3,2.5,6,2.5c1.6,0,2.8-0.3,3.8-0.8c0.9-0.5,1.7-1.2,2.2-2
			c0.5-0.8,0.9-1.7,1-2.6c0.2-0.9,0.3-1.8,0.4-2.6c0-0.3,0.1-0.5,0.2-0.8c0.1-0.2,0.3-0.3,0.7-0.3c0.3,0,0.5,0.1,0.7,0.4
			c0.1,0.2,0.2,0.7,0.2,1.4c0,1.2-0.2,2.4-0.6,3.5c-0.4,1.2-1,2.2-1.8,3.1c-0.8,0.9-1.8,1.6-2.9,2.2c-1.2,0.6-2.5,0.8-4.1,0.8
			c-1.3,0-2.5-0.2-3.6-0.7c-1.1-0.5-2.1-1.2-3-2.2c-0.9-1-1.5-2.3-2-3.9c-0.5-1.6-0.7-3.6-0.7-5.9v-20c0-2.3,0.3-4.3,0.8-5.9
			c0.5-1.6,1.2-2.9,2.1-3.9c0.9-1,1.9-1.7,3-2.2c1.2-0.5,2.4-0.7,3.7-0.7c1.5,0,2.9,0.3,4,0.8c1.2,0.6,2.1,1.3,2.9,2.2
			c0.8,0.9,1.3,1.9,1.7,3.1c0.4,1.2,0.6,2.4,0.6,3.5c0,0.7-0.1,1.2-0.2,1.4c-0.1,0.2-0.4,0.3-0.7,0.3c-0.4,0-0.7-0.1-0.7-0.4
			c-0.1-0.3-0.1-0.5-0.1-0.7c0-0.7-0.2-1.6-0.4-2.5c-0.2-0.9-0.6-1.8-1.1-2.7c-0.5-0.8-1.3-1.5-2.3-2.1c-1-0.6-2.2-0.8-3.8-0.8
			c-2.5,0-4.5,0.8-5.8,2.5c-1.3,1.7-2,4.3-2,8V160.5z"/>
		<path class="st0" d="M72.7,173.2c-1.3,0-2.6-0.2-3.7-0.7c-1.2-0.5-2.2-1.2-3-2.2c-0.8-1-1.5-2.3-2-3.9c-0.5-1.6-0.7-3.6-0.7-5.9
			v-20c0-2.3,0.2-4.3,0.7-5.9c0.5-1.6,1.1-2.9,2-3.9c0.8-1,1.8-1.7,3-2.2c1.2-0.5,2.4-0.7,3.7-0.7c1.3,0,2.6,0.2,3.7,0.7
			c1.2,0.5,2.2,1.2,3,2.2c0.9,1,1.5,2.3,2,3.9c0.5,1.6,0.7,3.6,0.7,5.9v20c0,2.3-0.2,4.3-0.7,5.9c-0.5,1.6-1.1,2.9-2,3.9
			c-0.9,1-1.9,1.7-3,2.2C75.2,173,74,173.2,72.7,173.2z M80.4,140.5c0-3.6-0.7-6.3-2-8c-1.4-1.7-3.3-2.5-5.7-2.5
			c-2.4,0-4.3,0.8-5.6,2.5c-1.3,1.7-2,4.3-2,8v20c0,3.6,0.7,6.3,2,8c1.3,1.7,3.2,2.5,5.6,2.5c2.4,0,4.3-0.8,5.7-2.5
			c1.4-1.7,2-4.3,2-8V140.5z"/>
		<path class="st0" d="M107.8,127.7c0.3,0,0.5,0.1,0.6,0.3c0.1,0.2,0.2,0.5,0.2,0.7c0,0.3-0.1,0.6-0.2,0.8c-0.1,0.2-0.3,0.3-0.6,0.3
			H91.5v19.2h7.7c0.3,0,0.5,0.1,0.6,0.3c0.1,0.2,0.2,0.5,0.2,0.8c0,0.2-0.1,0.5-0.2,0.7c-0.1,0.2-0.3,0.3-0.6,0.3h-7.7v20.4
			c0,0.4-0.1,0.6-0.3,0.8c-0.2,0.2-0.4,0.2-0.6,0.2c-0.2,0-0.4-0.1-0.6-0.2c-0.2-0.2-0.3-0.4-0.3-0.8v-42.9c0-0.4,0.1-0.6,0.3-0.8
			c0.2-0.2,0.4-0.3,0.6-0.3H107.8z"/>
		<path class="st0" d="M131.3,127.7c0.3,0,0.5,0.1,0.6,0.3c0.1,0.2,0.2,0.5,0.2,0.7c0,0.3-0.1,0.6-0.2,0.8c-0.1,0.2-0.3,0.3-0.6,0.3
			H115v19.2h7.7c0.3,0,0.5,0.1,0.6,0.3c0.1,0.2,0.2,0.5,0.2,0.8c0,0.2-0.1,0.5-0.2,0.7c-0.1,0.2-0.3,0.3-0.6,0.3H115v20.4
			c0,0.4-0.1,0.6-0.3,0.8c-0.2,0.2-0.4,0.2-0.6,0.2c-0.2,0-0.4-0.1-0.6-0.2c-0.2-0.2-0.3-0.4-0.3-0.8v-42.9c0-0.4,0.1-0.6,0.3-0.8
			c0.2-0.2,0.4-0.3,0.6-0.3H131.3z"/>
		<path class="st0" d="M138.6,149.1h7.7c0.3,0,0.5,0.1,0.6,0.3c0.1,0.2,0.2,0.5,0.2,0.8c0,0.2-0.1,0.5-0.2,0.7
			c-0.1,0.2-0.3,0.3-0.6,0.3h-7.7v19.2h16.3c0.3,0,0.5,0.1,0.6,0.3c0.1,0.2,0.2,0.5,0.2,0.8c0,0.2-0.1,0.5-0.2,0.7
			c-0.1,0.2-0.3,0.3-0.6,0.3h-17.1c-0.2,0-0.4-0.1-0.6-0.3c-0.2-0.2-0.3-0.5-0.3-0.8v-42.9c0-0.4,0.1-0.6,0.3-0.8
			c0.2-0.2,0.4-0.3,0.6-0.3h17.1c0.3,0,0.5,0.1,0.6,0.3c0.1,0.2,0.2,0.5,0.2,0.7c0,0.3-0.1,0.6-0.2,0.8c-0.1,0.2-0.3,0.3-0.6,0.3
			h-16.3V149.1z"/>
		<path class="st0" d="M162.6,149.1h7.7c0.3,0,0.5,0.1,0.6,0.3c0.1,0.2,0.2,0.5,0.2,0.8c0,0.2-0.1,0.5-0.2,0.7
			c-0.1,0.2-0.3,0.3-0.6,0.3h-7.7v19.2h16.3c0.3,0,0.5,0.1,0.6,0.3c0.1,0.2,0.2,0.5,0.2,0.8c0,0.2-0.1,0.5-0.2,0.7
			c-0.1,0.2-0.3,0.3-0.6,0.3h-17.1c-0.2,0-0.4-0.1-0.6-0.3c-0.2-0.2-0.3-0.5-0.3-0.8v-42.9c0-0.4,0.1-0.6,0.3-0.8
			c0.2-0.2,0.4-0.3,0.6-0.3h17.1c0.3,0,0.5,0.1,0.6,0.3c0.1,0.2,0.2,0.5,0.2,0.7c0,0.3-0.1,0.6-0.2,0.8c-0.1,0.2-0.3,0.3-0.6,0.3
			h-16.3V149.1z"/>
		<path class="st0" d="M211.6,150.6h-15.4v21.2c0,0.4-0.1,0.6-0.3,0.8c-0.2,0.2-0.4,0.3-0.6,0.3c-0.2,0-0.4-0.1-0.6-0.3
			c-0.2-0.2-0.3-0.5-0.3-0.8v-42.9c0-0.4,0.1-0.6,0.3-0.8c0.2-0.2,0.4-0.2,0.6-0.2c0.2,0,0.4,0.1,0.6,0.2c0.2,0.2,0.3,0.4,0.3,0.8
			v19.5h15.4v-19.5c0-0.4,0.1-0.6,0.3-0.8c0.2-0.2,0.4-0.2,0.6-0.2c0.2,0,0.4,0.1,0.6,0.2c0.2,0.2,0.3,0.4,0.3,0.8v42.9
			c0,0.4-0.1,0.6-0.3,0.8c-0.2,0.2-0.4,0.3-0.6,0.3c-0.2,0-0.4-0.1-0.6-0.3c-0.2-0.2-0.3-0.5-0.3-0.8V150.6z"/>
		<path class="st0" d="M230.4,173.2c-1.3,0-2.6-0.2-3.7-0.7c-1.2-0.5-2.2-1.2-3-2.2c-0.8-1-1.5-2.3-2-3.9c-0.5-1.6-0.7-3.6-0.7-5.9
			v-20c0-2.3,0.2-4.3,0.7-5.9c0.5-1.6,1.1-2.9,2-3.9c0.8-1,1.8-1.7,3-2.2c1.2-0.5,2.4-0.7,3.7-0.7c1.3,0,2.6,0.2,3.7,0.7
			c1.2,0.5,2.2,1.2,3,2.2c0.9,1,1.5,2.3,2,3.9c0.5,1.6,0.7,3.6,0.7,5.9v20c0,2.3-0.2,4.3-0.7,5.9c-0.5,1.6-1.1,2.9-2,3.9
			c-0.9,1-1.9,1.7-3,2.2C232.9,173,231.7,173.2,230.4,173.2z M238.1,140.5c0-3.6-0.7-6.3-2-8c-1.4-1.7-3.3-2.5-5.7-2.5
			c-2.4,0-4.3,0.8-5.6,2.5c-1.3,1.7-2,4.3-2,8v20c0,3.6,0.7,6.3,2,8c1.3,1.7,3.2,2.5,5.6,2.5c2.4,0,4.3-0.8,5.7-2.5
			c1.4-1.7,2-4.3,2-8V140.5z"/>
		<path class="st0" d="M247.3,128.8c0-0.4,0.1-0.6,0.3-0.8c0.2-0.2,0.4-0.2,0.6-0.2c0.2,0,0.4,0.1,0.6,0.2c0.2,0.2,0.3,0.4,0.3,0.8
			v31.7c0,3.6,0.7,6.3,2,8c1.3,1.7,3.2,2.5,5.6,2.5s4.3-0.8,5.7-2.5c1.4-1.7,2-4.3,2-8v-31.7c0-0.4,0.1-0.6,0.3-0.8
			c0.2-0.2,0.4-0.2,0.6-0.2c0.2,0,0.4,0.1,0.6,0.2c0.2,0.2,0.3,0.4,0.3,0.8v31.7c0,2.3-0.2,4.3-0.7,5.9c-0.5,1.6-1.1,2.9-2,3.9
			c-0.9,1-1.9,1.7-3,2.2c-1.2,0.5-2.4,0.7-3.7,0.7c-1.3,0-2.6-0.2-3.7-0.7c-1.2-0.5-2.2-1.2-3-2.2c-0.8-1-1.5-2.3-2-3.9
			c-0.5-1.6-0.7-3.6-0.7-5.9V128.8z"/>
		<path class="st0" d="M281,171c2.6,0,4.6-0.8,6-2.5c1.4-1.7,2-4.2,2-7.5c0-2.6-0.4-4.7-1.2-6.1c-0.8-1.4-1.8-2.5-3-3.4
			c-1.2-0.8-2.5-1.5-3.9-2c-1.4-0.5-2.7-1.2-3.9-2c-1.2-0.8-2.2-1.9-3-3.3c-0.8-1.4-1.2-3.3-1.2-5.9c0-2.2,0.3-4,0.9-5.4
			c0.6-1.4,1.4-2.5,2.3-3.3c0.9-0.8,2-1.3,3.1-1.6c1.1-0.3,2.2-0.4,3.2-0.4c1,0,2,0.1,2.9,0.3c0.9,0.2,1.7,0.5,2.4,0.8
			c0.7,0.3,1.3,0.6,1.7,1c0.4,0.4,0.6,0.7,0.6,1.1c0,0.2-0.1,0.5-0.3,0.9c-0.2,0.3-0.4,0.5-0.6,0.5c-0.2,0-0.4-0.1-0.7-0.4
			c-0.3-0.2-0.8-0.5-1.3-0.8c-0.5-0.3-1.2-0.6-2-0.8c-0.8-0.2-1.7-0.4-2.8-0.4c-0.9,0-1.8,0.1-2.7,0.4c-0.9,0.2-1.7,0.7-2.5,1.3
			c-0.7,0.6-1.3,1.5-1.8,2.5c-0.5,1.1-0.7,2.4-0.7,4.1c0,1.6,0.2,3,0.7,4c0.5,1,1.1,1.9,1.8,2.6c0.8,0.7,1.6,1.2,2.6,1.7
			c1,0.5,2,0.9,3,1.4c1,0.5,2,1,3,1.5c1,0.6,1.8,1.3,2.6,2.3c0.8,0.9,1.4,2.1,1.8,3.6c0.5,1.5,0.7,3.3,0.7,5.5s-0.2,4-0.7,5.6
			c-0.5,1.6-1.1,2.8-2,3.9c-0.8,1-1.8,1.7-3,2.2c-1.2,0.5-2.4,0.7-3.8,0.7c-1.5,0-2.9-0.2-4-0.7c-1.2-0.5-2.1-1.1-2.9-1.8
			c-0.8-0.7-1.4-1.4-1.8-2.1c-0.4-0.7-0.6-1.3-0.6-1.7c0-0.3,0.1-0.6,0.3-0.9c0.2-0.3,0.4-0.4,0.5-0.4c0.2,0,0.5,0.3,0.7,0.8
			c0.3,0.6,0.7,1.2,1.3,1.8c0.6,0.7,1.3,1.3,2.3,1.8C278,170.7,279.3,171,281,171z"/>
		<path class="st0" d="M298.8,149.1h7.7c0.3,0,0.5,0.1,0.6,0.3c0.1,0.2,0.2,0.5,0.2,0.8c0,0.2-0.1,0.5-0.2,0.7
			c-0.1,0.2-0.3,0.3-0.6,0.3h-7.7v19.2h16.3c0.3,0,0.5,0.1,0.6,0.3c0.1,0.2,0.2,0.5,0.2,0.8c0,0.2-0.1,0.5-0.2,0.7
			c-0.1,0.2-0.3,0.3-0.6,0.3h-17.1c-0.2,0-0.4-0.1-0.6-0.3c-0.2-0.2-0.3-0.5-0.3-0.8v-42.9c0-0.4,0.1-0.6,0.3-0.8
			c0.2-0.2,0.4-0.3,0.6-0.3h17.1c0.3,0,0.5,0.1,0.6,0.3c0.1,0.2,0.2,0.5,0.2,0.7c0,0.3-0.1,0.6-0.2,0.8c-0.1,0.2-0.3,0.3-0.6,0.3
			h-16.3V149.1z"/>
	</g>
	<g>
		<g>
			<g>
				<path class="st0" d="M195.3,67.4h-0.7l0.5-1.7h-28.9l6.9,24.6h15l2.6-9.1h4.5c2.4,0,4.4-2,4.4-4.4v-5
					C199.7,69.3,197.7,67.4,195.3,67.4z M196.7,76.7c0,0.8-0.6,1.4-1.4,1.4h-3.7l2.2-7.7h1.5c0.8,0,1.4,0.6,1.4,1.4V76.7z"/>
				<g>
					<path class="st0" d="M189.5,95.7h-17.7c-2.3,0-4.2-1.9-4.2-4.2h3c0,0.7,0.5,1.2,1.2,1.2h17.7c0.6,0,1.2-0.5,1.2-1.2h3
						C193.7,93.9,191.8,95.7,189.5,95.7z"/>
				</g>
			</g>
			<g>
				<g>
					<path class="st0" d="M176,55.1c-0.8,1.6-1,3.6-1,5.6c-1.5-3.1-1.3-5.9-0.1-8.9c0.9-2.2,0.4-2.5,0.1-3.4
						C177,50,177,53.1,176,55.1L176,55.1z"/>
				</g>
				<g>
					<path class="st0" d="M183.3,51.4c-0.8,1.6-1,3.6-1,5.6c-1.5-3.1-1.3-5.9-0.1-8.9c0.9-2.2,0.4-2.5,0.1-3.4
						C184.3,46.3,184.3,49.4,183.3,51.4L183.3,51.4z"/>
				</g>
				<g>
					<path class="st0" d="M189.4,55.1c-0.8,1.6-1,3.6-1,5.6c-1.5-3.1-1.3-5.9-0.1-8.9c0.9-2.2,0.4-2.5,0.1-3.4
						C190.4,50,190.4,53.1,189.4,55.1L189.4,55.1z"/>
				</g>
			</g>
		</g>
	</g>
	<g>
		<path class="st0" d="M327.2,203.8h-294l-29.6-51l29.6-51h294l26.1,51L327.2,203.8z M34.9,200.8h290.5l24.6-48l-24.6-48H34.9
			L7,152.8L34.9,200.8z"/>
	</g>
	<g>
		<g>
			<polygon class="st0" points="233.2,94.3 180.1,6.6 127.1,94.3 124.5,92.7 180.1,0.8 235.8,92.7 			"/>
		</g>
		<g>
			<polygon class="st0" points="345.9,274.7 282.8,274.7 282.8,271.7 340.6,271.7 304.8,212.7 307.4,211.1 			"/>
		</g>
		<g>
			<rect x="96" y="271.7" class="st0" width="169.2" height="3"/>
		</g>
		<g>
			<polygon class="st0" points="73.3,274.7 14.4,274.7 52.9,211.1 55.4,212.7 19.7,271.7 73.3,271.7 			"/>
		</g>
	</g>
	<g>
		<g>
			<polygon class="st0" points="235.9,118.1 180.1,25.9 124.3,118.1 121.8,116.5 180.1,20.1 238.5,116.5 			"/>
		</g>
		<g>
			<polygon class="st0" points="70.5,264.7 32.1,264.7 78.8,187.5 81.4,189.1 37.4,261.7 70.5,261.7 			"/>
		</g>
		<g>
			<rect x="117.6" y="261.7" class="st0" width="125.1" height="3"/>
		</g>
		<g>
			<polygon class="st0" points="328.1,264.7 287.5,264.7 287.5,261.7 322.8,261.7 278.9,189.1 281.4,187.5 			"/>
		</g>
	</g>
	<g>
		<path class="st0" d="M103.5,258.2l-7.1-16.6l3.3-1.4c2.7-1.2,4.4,0.7,5.2,2.7c0.5,1.3,0.7,3.1-0.2,4.1c1.8,0,3.1,1.8,3.7,3.2
			c1.1,2.6,1.6,5.2-1.4,6.5L103.5,258.2z M100.8,248.1l2.2-0.9c1.4-0.6,1.2-2.2,0.5-3.6c-0.7-1.7-1.8-2.9-3.5-2.2l-1.8,0.8
			L100.8,248.1z M104.4,256.5l2.4-1c1.6-0.7,1.2-2.6,0.3-4.7c-0.8-1.8-1.8-3.3-3.4-2.6l-2.4,1L104.4,256.5z"/>
		<path class="st0" d="M118.1,252.4l-5.7-17.1l5.5-1.8l0.4,1.2l-4.1,1.4l2.2,6.5l2.9-1l0.4,1.1l-2.9,1l2.4,7.1l4.1-1.4l0.4,1.2
			L118.1,252.4z"/>
		<path class="st0" d="M129.3,244.3l1.2-0.7c0.7,1.8,1.9,3.4,3.8,2.9c1.5-0.4,2.1-1.5,1.7-3.1c-0.4-1.5-1.7-2.5-3.2-3.6l-3.2-2.3
			c-1.2-0.9-2.2-1.8-2.6-3.1c-0.6-2.3,0.6-4.2,2.8-4.7c2.1-0.5,3.7,0.5,4.8,2.9l0.1,0.2l-1.1,0.7l-0.1-0.1c-0.6-1.6-1.8-2.7-3.4-2.3
			c-1.4,0.3-2.1,1.3-1.7,2.9c0.2,1,1,1.7,2,2.5l3.1,2.2c1.6,1.2,3.4,2.3,3.9,4.3c0.6,2.6-0.7,4.3-2.8,4.9
			C132.1,248.4,130.3,246.7,129.3,244.3z"/>
		<path class="st0" d="M147.4,244.8l-2.8-16.6l-3.2,0.5l-0.2-1.3l7.8-1.3l0.2,1.3L146,228l2.8,16.6L147.4,244.8z"/>
		<path class="st0" d="M167.4,237.1l-0.4-7.6c-0.1-3,0.7-5.6,4-5.7c3.2-0.2,4.3,2.3,4.5,5.3l0.4,7.6c0.1,2.2-0.3,4.1-1.7,5.1
			c0.6,0.5,1.2,1.1,2.1,1.2l0.1,1.2c-1.2-0.1-2.1-0.9-3.1-2c-0.4,0.1-0.8,0.2-1.3,0.2C168.6,242.6,167.5,240.2,167.4,237.1z
			 M174.4,237.2l-0.4-8.3c-0.1-2.1-0.8-3.8-2.9-3.7c-2.2,0.1-2.7,1.9-2.6,4l0.4,8.3c0.1,2.1,0.8,3.9,2.9,3.7
			C174,241.1,174.5,239.3,174.4,237.2z"/>
		<path class="st0" d="M184.4,237.5l0.5-13.6l1.5,0l-0.5,14c-0.1,2,0.6,3.1,2.7,3.2c2,0.1,2.7-1,2.8-3l0.5-14l1.5,0l-0.5,13.6
			c-0.1,2.5-1,4.7-4.3,4.6C185.2,242.2,184.4,240,184.4,237.5z"/>
		<path class="st0" d="M201.5,242.9l-1.5-0.2c2.5-8.2,2.8-9.4,5.3-17.6l1.9,0.2l1.2,18.3l-1.5-0.2l-0.3-4.8l-3.8-0.4L201.5,242.9z
			 M203.2,237.3l3.4,0.4l-0.5-10.8L203.2,237.3z"/>
		<path class="st0" d="M216.1,244.9l3.3-17.8l1.4,0.3l-3.1,16.5l4.6,0.9l-0.2,1.3L216.1,244.9z"/>
		<path class="st0" d="M229.1,247.6l4.4-17.5l1.4,0.4l-4.4,17.5L229.1,247.6z"/>
		<path class="st0" d="M240.3,250.8l5.1-16l-3.1-1l0.4-1.2l7.6,2.4l-0.4,1.2l-3.1-1l-5.1,16L240.3,250.8z"/>
		<path class="st0" d="M253.2,255.4l2.1-5.2l1.4-12.9l1.5,0.6l-1.6,11.1c2.9-3.9,3.7-5.1,6.6-9l1.4,0.6l-8,10.2l-2.1,5.2
			L253.2,255.4z"/>
	</g>
	<g>
		<g>
			<g>
				<rect x="171.2" y="191.9" class="st0" width="3" height="10.5"/>
			</g>
			<g>
				<rect x="156.6" y="191.9" class="st0" width="3" height="10.5"/>
			</g>
			<g>
				<rect x="142.1" y="191.9" class="st0" width="3" height="10.5"/>
			</g>
			<g>
				<rect x="127.5" y="191.9" class="st0" width="3" height="10.5"/>
			</g>
			<g>
				<rect x="113" y="191.9" class="st0" width="3" height="10.5"/>
			</g>
			<g>
				<rect x="98.4" y="191.9" class="st0" width="3" height="10.5"/>
			</g>
		</g>
		<g>
			<g>
				<rect x="257.9" y="191.9" class="st0" width="3" height="10.5"/>
			</g>
			<g>
				<rect x="243.3" y="191.9" class="st0" width="3" height="10.5"/>
			</g>
			<g>
				<rect x="228.8" y="191.9" class="st0" width="3" height="10.5"/>
			</g>
			<g>
				<rect x="214.2" y="191.9" class="st0" width="3" height="10.5"/>
			</g>
			<g>
				<rect x="199.7" y="191.9" class="st0" width="3" height="10.5"/>
			</g>
			<g>
				<rect x="185.1" y="191.9" class="st0" width="3" height="10.5"/>
			</g>
		</g>
	</g>
	<g>
		<g>
			<g>
				<rect x="171.2" y="103.9" class="st0" width="3" height="10.5"/>
			</g>
			<g>
				<rect x="156.6" y="103.9" class="st0" width="3" height="10.5"/>
			</g>
			<g>
				<rect x="142.1" y="103.9" class="st0" width="3" height="10.5"/>
			</g>
		</g>
		<g>
			<g>
				<rect x="214.2" y="103.9" class="st0" width="3" height="10.5"/>
			</g>
			<g>
				<rect x="199.7" y="103.9" class="st0" width="3" height="10.5"/>
			</g>
			<g>
				<rect x="185.1" y="103.9" class="st0" width="3" height="10.5"/>
			</g>
		</g>
	</g>
	<path class="st0" d="M314.6,258.3l-2.3-1.9c-34.9-29.5-81.9-45.8-132.3-45.8c-50.3,0-97.3,16.2-132.2,45.7l-2.2,1.9l28.3,7.6
		l-3.4,26.7l3.3-2.8c0.2-0.2,0.5-0.4,0.8-0.6c27.7-22.4,65.1-34.8,105.4-34.8c40.3,0,77.7,12.3,105.4,34.8c0.3,0.2,0.5,0.4,0.7,0.6
		l3.8,3.2l-6.4-27.1L314.6,258.3z M74.5,285.2l2.7-21.8l-25.2-6.8c8.3-6.8,17.3-12.8,26.9-18.1l18.6,31.9
		C89.3,274.7,81.6,279.7,74.5,285.2z M100.2,269.1l-18.6-32c29-15.4,62.9-23.6,98.5-23.6c35.4,0,69.1,8.1,98,23.4l-18.6,32
		c-23.5-11.5-50.7-17.7-79.4-17.7C151.2,251.2,123.8,257.4,100.2,269.1z M285.1,284.8c-7.1-5.5-14.8-10.4-22.9-14.6l18.6-31.9
		c9.7,5.3,18.9,11.5,27.4,18.4l-28.1,6.7L285.1,284.8z"/>
</g>
</svg>
